<?xml version="1.0" encoding="UTF-8" standalone="no"?>
<!DOCTYPE svg PUBLIC "-//W3C//DTD SVG 1.0//EN" "http://www.w3.org/TR/2001/PR-SVG-20010719/DTD/svg10.dtd">
<svg width="25cm" height="17cm" viewBox="352 6 481 324" xmlns="http://www.w3.org/2000/svg" xmlns:xlink="http://www.w3.org/1999/xlink">
  <g>
    <rect style="fill: #d8e5e5" x="354" y="46.8732" width="423" height="282.541" rx="20" ry="20"/>
    <rect style="fill: none; fill-opacity:0; stroke-width: 2; stroke-linejoin: round; stroke: #000000" x="354" y="46.8732" width="423" height="282.541" rx="20" ry="20"/>
  </g>
  <g>
    <rect style="fill: #ffffff" x="423.408" y="114.282" width="111.3" height="36" rx="20" ry="20"/>
    <rect style="fill: none; fill-opacity:0; stroke-width: 2; stroke-linejoin: round; stroke: #000000" x="423.408" y="114.282" width="111.3" height="36" rx="20" ry="20"/>
    <text font-size="12.8" style="fill: #000000;text-anchor:middle;font-family:sans-serif;font-style:normal;font-weight:normal" x="479.058" y="136.182">
      <tspan x="479.058" y="136.182">Build PDF files</tspan>
    </text>
  </g>
  <g>
    <rect style="fill: #ffffff" x="427.933" y="191.451" width="102.25" height="36" rx="20" ry="20"/>
    <rect style="fill: none; fill-opacity:0; stroke-width: 2; stroke-linejoin: round; stroke: #000000" x="427.933" y="191.451" width="102.25" height="36" rx="20" ry="20"/>
    <text font-size="12.8" style="fill: #000000;text-anchor:middle;font-family:sans-serif;font-style:normal;font-weight:normal" x="479.058" y="213.351">
      <tspan x="479.058" y="213.351">Build PS files</tspan>
    </text>
  </g>
  <g>
    <rect style="fill: #ffffff" x="605.276" y="114.282" width="150.65" height="36" rx="20" ry="20"/>
    <rect style="fill: none; fill-opacity:0; stroke-width: 2; stroke-linejoin: round; stroke: #000000" x="605.276" y="114.282" width="150.65" height="36" rx="20" ry="20"/>
    <text font-size="12.8" style="fill: #000000;text-anchor:middle;font-family:sans-serif;font-style:normal;font-weight:normal" x="680.601" y="136.182">
      <tspan x="680.601" y="136.182">Build preview image</tspan>
    </text>
  </g>
  <g>
    <rect style="fill: #ffffff" x="639.45" y="191.451" width="82.3" height="36" rx="20" ry="20"/>
    <rect style="fill: none; fill-opacity:0; stroke-width: 2; stroke-linejoin: round; stroke: #000000" x="639.45" y="191.451" width="82.3" height="36" rx="20" ry="20"/>
    <text font-size="12.8" style="fill: #000000;text-anchor:middle;font-family:sans-serif;font-style:normal;font-weight:normal" x="680.6" y="213.351">
      <tspan x="680.6" y="213.351">Build RDF</tspan>
    </text>
  </g>
  <g>
    <ellipse style="fill: #ffffff" cx="817.6" cy="295.71" rx="15" ry="15"/>
    <ellipse style="fill: none; fill-opacity:0; stroke-width: 2; stroke-linejoin: round; stroke: #000000" cx="817.6" cy="295.71" rx="15" ry="15"/>
    <ellipse style="fill: #000000" cx="817.6" cy="295.71" rx="10" ry="10"/>
  </g>
  <g>
    <rect style="fill: #ffffff" x="634.276" y="277.71" width="92.65" height="36" rx="20" ry="20"/>
    <rect style="fill: none; fill-opacity:0; stroke-width: 2; stroke-linejoin: round; stroke: #000000" x="634.276" y="277.71" width="92.65" height="36" rx="20" ry="20"/>
    <text font-size="12.8" style="fill: #000000;text-anchor:middle;font-family:sans-serif;font-style:normal;font-weight:normal" x="680.601" y="299.61">
      <tspan x="680.601" y="299.61">Change log</tspan>
    </text>
  </g>
  <g>
    <polyline style="fill: none; fill-opacity:0; stroke-width: 2; stroke-linejoin: round; stroke: #000000" points="680.6,227.451 680.6,252.581 680.601,252.581 680.601,273.238 "/>
    <polyline style="fill: none; fill-opacity:0; stroke-width: 2; stroke: #000000" points="675.601,265.474 680.601,275.474 685.601,265.474 "/>
  </g>
  <ellipse style="fill: #000000" cx="479.058" cy="17.7088" rx="10" ry="10"/>
  <g>
    <polyline style="fill: none; fill-opacity:0; stroke-width: 2; stroke: #000000" points="479.058,28.7142 479.058,38.7142 479.058,104.282 479.058,109.81 "/>
    <polyline style="fill: none; fill-opacity:0; stroke-width: 2; stroke: #000000" points="474.058,102.046 479.058,112.046 484.058,102.046 "/>
  </g>
  <g>
    <polyline style="fill: none; fill-opacity:0; stroke-width: 2; stroke: #000000" points="680.601,150.282 680.601,170.867 680.6,170.867 680.6,186.979 "/>
    <polyline style="fill: none; fill-opacity:0; stroke-width: 2; stroke: #000000" points="675.6,179.215 680.6,189.215 685.6,179.215 "/>
  </g>
  <g>
    <polyline style="fill: none; fill-opacity:0; stroke-width: 2; stroke: #000000" points="479.058,227.451 479.058,280.642 570,280.642 570,75.4636 680.601,75.4636 680.601,109.81 "/>
    <polyline style="fill: none; fill-opacity:0; stroke-width: 2; stroke: #000000" points="675.601,102.046 680.601,112.046 685.601,102.046 "/>
  </g>
  <g>
    <polyline style="fill: none; fill-opacity:0; stroke-width: 2; stroke: #000000" points="726.926,295.71 736.926,295.71 792.6,295.71 798.128,295.71 "/>
    <polyline style="fill: none; fill-opacity:0; stroke-width: 2; stroke: #000000" points="790.364,300.71 800.364,295.71 790.364,290.71 "/>
  </g>
  <g>
    <polyline style="fill: none; fill-opacity:0; stroke-width: 2; stroke: #000000" points="479.058,150.282 479.058,160.282 479.058,181.451 479.058,186.979 "/>
    <polyline style="fill: none; fill-opacity:0; stroke-width: 2; stroke: #000000" points="474.058,179.215 479.058,189.215 484.058,179.215 "/>
  </g>
  <text font-size="12.8" style="fill: #000000;text-anchor:start;font-family:sans-serif;font-style:normal;font-weight:normal" x="375.584" y="76.9736">
    <tspan x="375.584" y="76.9736">Build Assets</tspan>
  </text>
</svg>
