<?xml version="1.0" encoding="UTF-8" standalone="no"?>
<!DOCTYPE svg PUBLIC "-//W3C//DTD SVG 1.0//EN" "http://www.w3.org/TR/2001/PR-SVG-20010719/DTD/svg10.dtd">
<svg width="34cm" height="15cm" viewBox="-10 -21 679 293" xmlns="http://www.w3.org/2000/svg" xmlns:xlink="http://www.w3.org/1999/xlink">
  <g>
    <rect style="fill: #d8e5e5" x="45" y="-19.5629" width="539" height="290.313" rx="20" ry="20"/>
    <rect style="fill: none; fill-opacity:0; stroke-width: 2; stroke-linejoin: round; stroke: #000000" x="45" y="-19.5629" width="539" height="290.313" rx="20" ry="20"/>
  </g>
  <g>
    <rect style="fill: #ffffff" x="103.934" y="20.5936" width="120" height="52" rx="20" ry="20"/>
    <rect style="fill: none; fill-opacity:0; stroke-width: 2; stroke-linejoin: round; stroke: #000000" x="103.934" y="20.5936" width="120" height="52" rx="20" ry="20"/>
    <text font-size="12.8" style="fill: #000000;text-anchor:middle;font-family:sans-serif;font-style:normal;font-weight:normal" x="163.934" y="42.4936">
      <tspan x="163.934" y="42.4936">Obtain LilyPond</tspan>
      <tspan x="163.934" y="58.4936">Version of file</tspan>
    </text>
  </g>
  <g>
    <polygon style="fill: #ffffff" points="360.758,141.316 380.758,121.316 400.758,141.316 380.758,161.316 "/>
    <polygon style="fill: none; fill-opacity:0; stroke-width: 2; stroke-linejoin: round; stroke: #000000" points="360.758,141.316 380.758,121.316 400.758,141.316 380.758,161.316 "/>
  </g>
  <g>
    <rect style="fill: #ffffff" x="436.172" y="187.316" width="126.8" height="52" rx="20" ry="20"/>
    <rect style="fill: none; fill-opacity:0; stroke-width: 2; stroke-linejoin: round; stroke: #000000" x="436.172" y="187.316" width="126.8" height="52" rx="20" ry="20"/>
    <text font-size="12.8" style="fill: #000000;text-anchor:middle;font-family:sans-serif;font-style:normal;font-weight:normal" x="499.572" y="209.216">
      <tspan x="499.572" y="209.216">Set Environment</tspan>
      <tspan x="499.572" y="225.216">for LilyPond</tspan>
    </text>
  </g>
  <g>
    <polyline style="fill: none; fill-opacity:0; stroke-width: 2; stroke-linejoin: round; stroke: #000000" points="400.758,141.316 499.572,141.316 499.572,182.844 "/>
    <polyline style="fill: none; fill-opacity:0; stroke-width: 2; stroke: #000000" points="494.572,175.08 499.572,185.08 504.572,175.08 "/>
    <text font-size="12.7998" style="fill: #000000;text-anchor:middle;font-family:sans-serif;font-style:normal;font-weight:normal" x="445.7" y="129">[found match]</text>
  </g>
  <g>
    <polyline style="fill: none; fill-opacity:0; stroke-width: 2; stroke: #000000" points="360.758,141.316 269.234,141.316 269.234,182.844 "/>
    <polyline style="fill: none; fill-opacity:0; stroke-width: 2; stroke: #000000" points="264.234,175.08 269.234,185.08 274.234,175.08 "/>
    <text font-size="12.7998" style="fill: #000000;text-anchor:middle;font-family:sans-serif;font-style:normal;font-weight:normal" x="313" y="132">[else]</text>
  </g>
  <ellipse style="fill: #000000" cx="1.4242" cy="46.5936" rx="10" ry="10"/>
  <g>
    <rect style="fill: #ffffff" x="271.984" y="28.5936" width="217.55" height="36" rx="20" ry="20"/>
    <rect style="fill: none; fill-opacity:0; stroke-width: 2; stroke: #000000" x="271.984" y="28.5936" width="217.55" height="36" rx="20" ry="20"/>
    <text font-size="12.8" style="fill: #000000;text-anchor:middle;font-family:sans-serif;font-style:normal;font-weight:normal" x="380.759" y="50.4936">
      <tspan x="380.759" y="50.4936">Find most compatible compiler</tspan>
    </text>
  </g>
  <g>
    <polyline style="fill: none; fill-opacity:0; stroke-width: 2; stroke: #000000" points="380.759,64.5936 380.759,92.9547 380.758,92.9547 380.758,116.844 "/>
    <polyline style="fill: none; fill-opacity:0; stroke-width: 2; stroke: #000000" points="375.758,109.08 380.758,119.08 385.758,109.08 "/>
  </g>
  <g>
    <rect style="fill: #ffffff" x="172.209" y="187.316" width="194.05" height="52" rx="20" ry="20"/>
    <rect style="fill: none; fill-opacity:0; stroke-width: 2; stroke: #000000" x="172.209" y="187.316" width="194.05" height="52" rx="20" ry="20"/>
    <text font-size="12.8" style="fill: #000000;text-anchor:middle;font-family:sans-serif;font-style:normal;font-weight:normal" x="269.234" y="209.216">
      <tspan x="269.234" y="209.216">Install LilyPond compiler</tspan>
      <tspan x="269.234" y="225.216">with highest minor revision</tspan>
    </text>
  </g>
  <g>
    <polyline style="fill: none; fill-opacity:0; stroke-width: 2; stroke: #000000" points="223.934,46.5936 233.934,46.5936 261.984,46.5936 267.512,46.5936 "/>
    <polyline style="fill: none; fill-opacity:0; stroke-width: 2; stroke: #000000" points="259.748,51.5936 269.748,46.5936 259.748,41.5936 "/>
  </g>
  <g>
    <polyline style="fill: none; fill-opacity:0; stroke-width: 2; stroke: #000000" points="11.4242,46.5936 21.4242,46.5936 93.9338,46.5936 99.4617,46.5936 "/>
    <polyline style="fill: none; fill-opacity:0; stroke-width: 2; stroke: #000000" points="91.6977,51.5936 101.698,46.5936 91.6977,41.5936 "/>
  </g>
  <g>
    <ellipse style="fill: #ffffff" cx="652.674" cy="213.316" rx="15" ry="15"/>
    <ellipse style="fill: none; fill-opacity:0; stroke-width: 2; stroke: #000000" cx="652.674" cy="213.316" rx="15" ry="15"/>
    <ellipse style="fill: #000000" cx="652.674" cy="213.316" rx="10" ry="10"/>
  </g>
  <g>
    <polyline style="fill: none; fill-opacity:0; stroke-width: 2; stroke: #000000" points="366.259,213.316 376.259,213.316 426.172,213.316 431.7,213.316 "/>
    <polyline style="fill: none; fill-opacity:0; stroke-width: 2; stroke: #000000" points="423.936,218.316 433.936,213.316 423.936,208.316 "/>
  </g>
  <g>
    <polyline style="fill: none; fill-opacity:0; stroke-width: 2; stroke: #000000" points="562.972,213.316 572.972,213.316 627.674,213.316 633.202,213.316 "/>
    <polyline style="fill: none; fill-opacity:0; stroke-width: 2; stroke: #000000" points="625.438,218.316 635.438,213.316 625.438,208.316 "/>
  </g>
  <text font-size="12.8" style="fill: #000000;text-anchor:start;font-family:sans-serif;font-style:normal;font-weight:normal" x="609" y="4">
    <tspan x="609" y="4"></tspan>
  </text>
  <text font-size="12.8" style="fill: #000000;text-anchor:start;font-family:sans-serif;font-style:normal;font-weight:normal" x="395.994" y="4.8488">
    <tspan x="395.994" y="4.8488">LilyPond compiler cache</tspan>
  </text>
</svg>
