<?xml version="1.0" encoding="UTF-8" standalone="no"?>
<!DOCTYPE svg PUBLIC "-//W3C//DTD SVG 1.0//EN" "http://www.w3.org/TR/2001/PR-SVG-20010719/DTD/svg10.dtd">
<svg width="25cm" height="19cm" viewBox="41 -19 490 380" xmlns="http://www.w3.org/2000/svg" xmlns:xlink="http://www.w3.org/1999/xlink">
  <g>
    <rect style="fill: #d8e5e5" x="88.2834" y="-17.6186" width="384.717" height="377.369" rx="20" ry="20"/>
    <rect style="fill: none; fill-opacity:0; stroke-width: 2; stroke-linejoin: round; stroke: #000000" x="88.2834" y="-17.6186" width="384.717" height="377.369" rx="20" ry="20"/>
  </g>
  <ellipse style="fill: #000000" cx="52.7327" cy="28.2715" rx="10" ry="10"/>
  <g>
    <rect style="fill: #ffffff" x="242.05" y="10.2715" width="104" height="36" rx="20" ry="20"/>
    <rect style="fill: none; fill-opacity:0; stroke-width: 2; stroke-linejoin: round; stroke: #000000" x="242.05" y="10.2715" width="104" height="36" rx="20" ry="20"/>
    <text font-size="12.8" style="fill: #000000;text-anchor:middle;font-family:sans-serif;font-style:normal;font-weight:normal" x="294.05" y="32.1715">
      <tspan x="294.05" y="32.1715">Parse header</tspan>
    </text>
  </g>
  <g>
    <polygon style="fill: #ffffff" points="274.05,107 294.05,87 314.05,107 294.05,127 "/>
    <polygon style="fill: none; fill-opacity:0; stroke-width: 2; stroke-linejoin: round; stroke: #000000" points="274.05,107 294.05,87 314.05,107 294.05,127 "/>
  </g>
  <g>
    <rect style="fill: #ffffff" x="356.996" y="151" width="80" height="36" rx="20" ry="20"/>
    <rect style="fill: none; fill-opacity:0; stroke-width: 2; stroke-linejoin: round; stroke: #000000" x="356.996" y="151" width="80" height="36" rx="20" ry="20"/>
    <text font-size="12.8" style="fill: #000000;text-anchor:middle;font-family:sans-serif;font-style:normal;font-weight:normal" x="396.996" y="172.9">
      <tspan x="396.996" y="172.9">Assign ID</tspan>
    </text>
  </g>
  <g>
    <polyline style="fill: none; fill-opacity:0; stroke-width: 2; stroke-linejoin: round; stroke: #000000" points="314.05,107 396.996,107 396.996,146.528 "/>
    <polyline style="fill: none; fill-opacity:0; stroke-width: 2; stroke: #000000" points="391.996,138.764 396.996,148.764 401.996,138.764 "/>
    <text font-size="12.7998" style="fill: #000000;text-anchor:middle;font-family:sans-serif;font-style:normal;font-weight:normal" x="381" y="96.75">[new submission]</text>
  </g>
  <g>
    <polyline style="fill: none; fill-opacity:0; stroke-width: 2; stroke: #000000" points="294.05,46.2715 294.05,56.2715 294.05,77 294.05,82.5279 "/>
    <polyline style="fill: none; fill-opacity:0; stroke-width: 2; stroke: #000000" points="289.05,74.7639 294.05,84.7639 299.05,74.7639 "/>
  </g>
  <g>
    <rect style="fill: #ffffff" x="224.572" y="216.882" width="141.65" height="36" rx="20" ry="20"/>
    <rect style="fill: none; fill-opacity:0; stroke-width: 2; stroke: #000000" x="224.572" y="216.882" width="141.65" height="36" rx="20" ry="20"/>
    <text font-size="12.8" style="fill: #000000;text-anchor:middle;font-family:sans-serif;font-style:normal;font-weight:normal" x="295.397" y="238.782">
      <tspan x="295.397" y="238.782">Refresh Mutopia ID</tspan>
    </text>
  </g>
  <g>
    <polyline style="fill: none; fill-opacity:0; stroke-width: 2; stroke: #000000" points="274.05,107 183,107 183,234.882 220.1,234.882 "/>
    <polyline style="fill: none; fill-opacity:0; stroke-width: 2; stroke: #000000" points="212.336,239.882 222.336,234.882 212.336,229.882 "/>
    <text font-size="12.7998" style="fill: #000000;text-anchor:middle;font-family:sans-serif;font-style:normal;font-weight:normal" x="222" y="97.75">[revision]</text>
  </g>
  <g>
    <rect style="fill: #ffffff" x="242.998" y="293.882" width="104.8" height="36" rx="20" ry="20"/>
    <rect style="fill: none; fill-opacity:0; stroke-width: 2; stroke: #000000" x="242.998" y="293.882" width="104.8" height="36" rx="20" ry="20"/>
    <text font-size="12.8" style="fill: #000000;text-anchor:middle;font-family:sans-serif;font-style:normal;font-weight:normal" x="295.398" y="315.782">
      <tspan x="295.398" y="315.782">Record to file</tspan>
    </text>
  </g>
  <g>
    <ellipse style="fill: #ffffff" cx="515.713" cy="311.882" rx="15" ry="15"/>
    <ellipse style="fill: none; fill-opacity:0; stroke-width: 2; stroke: #000000" cx="515.713" cy="311.882" rx="15" ry="15"/>
    <ellipse style="fill: #000000" cx="515.713" cy="311.882" rx="10" ry="10"/>
  </g>
  <g>
    <polyline style="fill: none; fill-opacity:0; stroke-width: 2; stroke: #000000" points="295.397,252.882 295.397,273.382 295.398,273.382 295.398,289.41 "/>
    <polyline style="fill: none; fill-opacity:0; stroke-width: 2; stroke: #000000" points="290.398,281.646 295.398,291.646 300.398,281.646 "/>
  </g>
  <g>
    <polyline style="fill: none; fill-opacity:0; stroke-width: 2; stroke: #000000" points="347.798,311.882 357.798,311.882 489.705,311.882 495.233,311.882 "/>
    <polyline style="fill: none; fill-opacity:0; stroke-width: 2; stroke: #000000" points="487.469,316.882 497.469,311.882 487.469,306.882 "/>
  </g>
  <g>
    <polyline style="fill: none; fill-opacity:0; stroke-width: 2; stroke: #000000" points="63.738,28.2715 73.738,28.2715 232.05,28.2715 237.578,28.2715 "/>
    <polyline style="fill: none; fill-opacity:0; stroke-width: 2; stroke: #000000" points="229.814,33.2715 239.814,28.2715 229.814,23.2715 "/>
  </g>
  <g>
    <polyline style="fill: none; fill-opacity:0; stroke-width: 2; stroke: #000000" points="396.996,187 396.996,234.882 370.694,234.882 "/>
    <polyline style="fill: none; fill-opacity:0; stroke-width: 2; stroke: #000000" points="378.458,229.882 368.458,234.882 378.458,239.882 "/>
  </g>
  <text font-size="12.8" style="fill: #000000;text-anchor:start;font-family:sans-serif;font-style:normal;font-weight:normal" x="104.531" y="7.35008">
    <tspan x="104.531" y="7.35008">Prepare LilyPond File</tspan>
  </text>
</svg>
